<svg width="586" height="623" viewBox="0 0 586 623" fill="none" xmlns="http://www.w3.org/2000/svg">
<path d="M570.952 264.92C566.232 278.42 560.342 291.46 553.242 303.82C502.052 392.91 393.232 412.27 300.052 426.71C125.202 453.81 72.5618 622.43 72.5618 622.43C-28.5382 553.13 -10.8682 395.9 46.0318 303.42C105.992 205.96 226.672 161.33 332.202 135.5C550.732 82 523.692 0.13 523.652 0C526.392 8.27 537.462 18.01 542.182 25.53C556.342 48.08 567.282 72.71 574.642 98.3C589.962 151.64 589.522 211.82 570.952 264.92Z" fill="black"/>
<path d="M525.692 85.3601C525.692 85.3601 489.172 179.42 319.322 219.25C319.322 219.25 367.452 217.59 392.912 244.15C392.912 244.15 248.512 250.79 179.902 321.06C179.902 321.06 305.492 251.9 375.212 317.19C375.212 317.19 210.332 312.76 137.852 459.38C137.852 459.38 176.032 385.24 312.682 371.96C449.342 358.68 505.222 343.74 547.272 213.72C547.272 213.72 515.732 271.81 442.702 287.86C442.692 287.86 549.482 222.02 525.692 85.3601Z" fill="white"/>
</svg>
